<svg id="visual" viewBox="0 0 960 540" width="960" height="540" xmlns="http://www.w3.org/2000/svg" xmlns:xlink="http://www.w3.org/1999/xlink" version="1.1"><rect x="0" y="0" width="960" height="540" fill="#fafafa"></rect><defs><linearGradient id="grad1_0" x1="43.8%" y1="0%" x2="100%" y2="100%"><stop offset="14.444444444444446%" stop-color="#0f00fa" stop-opacity="1"></stop><stop offset="85.55555555555554%" stop-color="#0f00fa" stop-opacity="1"></stop></linearGradient></defs><defs><linearGradient id="grad1_1" x1="43.8%" y1="0%" x2="100%" y2="100%"><stop offset="14.444444444444446%" stop-color="#0f00fa" stop-opacity="1"></stop><stop offset="85.55555555555554%" stop-color="#7044fc" stop-opacity="1"></stop></linearGradient></defs><defs><linearGradient id="grad1_2" x1="43.8%" y1="0%" x2="100%" y2="100%"><stop offset="14.444444444444446%" stop-color="#9d72fd" stop-opacity="1"></stop><stop offset="85.55555555555554%" stop-color="#7044fc" stop-opacity="1"></stop></linearGradient></defs><defs><linearGradient id="grad1_3" x1="43.8%" y1="0%" x2="100%" y2="100%"><stop offset="14.444444444444446%" stop-color="#9d72fd" stop-opacity="1"></stop><stop offset="85.55555555555554%" stop-color="#c19ffd" stop-opacity="1"></stop></linearGradient></defs><defs><linearGradient id="grad1_4" x1="43.8%" y1="0%" x2="100%" y2="100%"><stop offset="14.444444444444446%" stop-color="#dfccfc" stop-opacity="1"></stop><stop offset="85.55555555555554%" stop-color="#c19ffd" stop-opacity="1"></stop></linearGradient></defs><defs><linearGradient id="grad1_5" x1="43.8%" y1="0%" x2="100%" y2="100%"><stop offset="14.444444444444446%" stop-color="#dfccfc" stop-opacity="1"></stop><stop offset="85.55555555555554%" stop-color="#fafafa" stop-opacity="1"></stop></linearGradient></defs><defs><linearGradient id="grad2_0" x1="0%" y1="0%" x2="56.3%" y2="100%"><stop offset="14.444444444444446%" stop-color="#0f00fa" stop-opacity="1"></stop><stop offset="85.55555555555554%" stop-color="#0f00fa" stop-opacity="1"></stop></linearGradient></defs><defs><linearGradient id="grad2_1" x1="0%" y1="0%" x2="56.3%" y2="100%"><stop offset="14.444444444444446%" stop-color="#7044fc" stop-opacity="1"></stop><stop offset="85.55555555555554%" stop-color="#0f00fa" stop-opacity="1"></stop></linearGradient></defs><defs><linearGradient id="grad2_2" x1="0%" y1="0%" x2="56.3%" y2="100%"><stop offset="14.444444444444446%" stop-color="#7044fc" stop-opacity="1"></stop><stop offset="85.55555555555554%" stop-color="#9d72fd" stop-opacity="1"></stop></linearGradient></defs><defs><linearGradient id="grad2_3" x1="0%" y1="0%" x2="56.3%" y2="100%"><stop offset="14.444444444444446%" stop-color="#c19ffd" stop-opacity="1"></stop><stop offset="85.55555555555554%" stop-color="#9d72fd" stop-opacity="1"></stop></linearGradient></defs><defs><linearGradient id="grad2_4" x1="0%" y1="0%" x2="56.3%" y2="100%"><stop offset="14.444444444444446%" stop-color="#c19ffd" stop-opacity="1"></stop><stop offset="85.55555555555554%" stop-color="#dfccfc" stop-opacity="1"></stop></linearGradient></defs><defs><linearGradient id="grad2_5" x1="0%" y1="0%" x2="56.3%" y2="100%"><stop offset="14.444444444444446%" stop-color="#fafafa" stop-opacity="1"></stop><stop offset="85.55555555555554%" stop-color="#dfccfc" stop-opacity="1"></stop></linearGradient></defs><g transform="translate(960, 0)"><path d="M0 189C-23.6 185.8 -47.2 182.7 -72.3 174.6C-97.5 166.5 -124.2 153.5 -131.5 131.5C-138.8 109.5 -126.7 78.5 -133 55.1C-139.4 31.7 -164.2 15.8 -189 0L0 0Z" fill="#ede3fb"></path><path d="M0 157.5C-19.7 154.9 -39.3 152.2 -60.3 145.5C-81.2 138.8 -103.5 127.9 -109.6 109.6C-115.7 91.3 -105.6 65.4 -110.9 45.9C-116.1 26.4 -136.8 13.2 -157.5 0L0 0Z" fill="#d1b5fd"></path><path d="M0 126C-15.7 123.9 -31.4 121.8 -48.2 116.4C-65 111 -82.8 102.3 -87.7 87.7C-92.5 73 -84.5 52.4 -88.7 36.7C-92.9 21.1 -109.5 10.6 -126 0L0 0Z" fill="#b089fd"></path><path d="M0 94.5C-11.8 92.9 -23.6 91.3 -36.2 87.3C-48.7 83.3 -62.1 76.8 -65.8 65.8C-69.4 54.8 -63.3 39.3 -66.5 27.6C-69.7 15.8 -82.1 7.9 -94.5 0L0 0Z" fill="#895cfd"></path><path d="M0 63C-7.9 61.9 -15.7 60.9 -24.1 58.2C-32.5 55.5 -41.4 51.2 -43.8 43.8C-46.3 36.5 -42.2 26.2 -44.3 18.4C-46.5 10.6 -54.7 5.3 -63 0L0 0Z" fill="#502afb"></path><path d="M0 31.5C-3.9 31 -7.9 30.4 -12.1 29.1C-16.2 27.8 -20.7 25.6 -21.9 21.9C-23.1 18.3 -21.1 13.1 -22.2 9.2C-23.2 5.3 -27.4 2.6 -31.5 0L0 0Z" fill="#0f00fa"></path></g><g transform="translate(0, 540)"><path d="M0 -189C24.1 -185.1 48.2 -181.1 71.6 -172.8C94.9 -164.4 117.6 -151.6 133.6 -133.6C149.7 -115.6 159.1 -92.4 167.2 -69.3C175.3 -46.1 182.2 -23.1 189 0L0 0Z" fill="#ede3fb"></path><path d="M0 -157.5C20.1 -154.2 40.2 -150.9 59.6 -144C79.1 -137 98 -126.4 111.4 -111.4C124.7 -96.4 132.6 -77 139.4 -57.7C146.1 -38.4 151.8 -19.2 157.5 0L0 0Z" fill="#d1b5fd"></path><path d="M0 -126C16.1 -123.4 32.1 -120.7 47.7 -115.2C63.3 -109.6 78.4 -101.1 89.1 -89.1C99.8 -77.1 106.1 -61.6 111.5 -46.2C116.9 -30.7 121.4 -15.4 126 0L0 0Z" fill="#b089fd"></path><path d="M0 -94.5C12 -92.5 24.1 -90.6 35.8 -86.4C47.5 -82.2 58.8 -75.8 66.8 -66.8C74.8 -57.8 79.5 -46.2 83.6 -34.6C87.7 -23.1 91.1 -11.5 94.5 0L0 0Z" fill="#895cfd"></path><path d="M0 -63C8 -61.7 16.1 -60.4 23.9 -57.6C31.6 -54.8 39.2 -50.5 44.5 -44.5C49.9 -38.5 53 -30.8 55.7 -23.1C58.4 -15.4 60.7 -7.7 63 0L0 0Z" fill="#502afb"></path><path d="M0 -31.5C4 -30.8 8 -30.2 11.9 -28.8C15.8 -27.4 19.6 -25.3 22.3 -22.3C24.9 -19.3 26.5 -15.4 27.9 -11.5C29.2 -7.7 30.4 -3.8 31.5 0L0 0Z" fill="#0f00fa"></path></g></svg>