<svg id="visual" viewBox="0 0 900 600" width="900" height="600" xmlns="http://www.w3.org/2000/svg" xmlns:xlink="http://www.w3.org/1999/xlink" version="1.1"><path d="M0 123L129 123L257 115L386 121L514 87L643 86L771 126L900 135L900 0L771 0L643 0L514 0L386 0L257 0L129 0L0 0Z" fill="#6d1e1e"></path><path d="M0 67L129 105L257 84L386 93L514 74L643 100L771 97L900 81L900 0L771 0L643 0L514 0L386 0L257 0L129 0L0 0Z" fill="#562320"></path><path d="M0 92L129 64L257 85L386 68L514 62L643 58L771 83L900 57L900 0L771 0L643 0L514 0L386 0L257 0L129 0L0 0Z" fill="#3e2522"></path><path d="M0 44L129 55L257 43L386 56L514 36L643 37L771 47L900 54L900 0L771 0L643 0L514 0L386 0L257 0L129 0L0 0Z" fill="#242424"></path></svg>